<svg width="278" height="278" viewBox="0 0 278 278" fill="none" xmlns="http://www.w3.org/2000/svg">
<rect width="278" height="278" rx="20" fill="#2664EB"/>
<path d="M148.959 203H128.873C128.291 203 128 202.698 128 202.095L128.349 74.7242C128.349 74.2414 128.582 74 129.048 74H163.456C174.402 74 183.048 77.4702 189.394 84.4105C195.798 91.2905 199 100.675 199 112.564C199 121.255 197.341 128.829 194.022 135.286C190.645 141.684 186.279 146.632 180.923 150.133C175.566 153.633 169.744 155.383 163.456 155.383H149.833V202.095C149.833 202.698 149.542 203 148.959 203ZM163.456 95.9979L149.833 96.179V132.933H163.456C167.241 132.933 170.53 131.062 173.325 127.32C176.119 123.518 177.517 118.599 177.517 112.564C177.517 107.736 176.265 103.783 173.761 100.705C171.258 97.567 167.823 95.9979 163.456 95.9979Z" fill="white" fill-opacity="0.9"/>
<path d="M114.47 203C108.074 203 102.177 201.36 96.7791 198.079C91.4395 194.798 87.1267 190.434 83.8408 184.986C80.6136 179.479 79 173.445 79 166.884L79.176 109.853C79.176 103.174 80.7896 97.1696 84.0169 91.8386C87.1854 86.4489 91.4688 82.143 96.8671 78.921C102.265 75.6403 108.133 74 114.47 74C121.042 74 126.939 75.611 132.161 78.8331C137.442 82.0552 141.667 86.3903 144.835 91.8386C148.063 97.2282 149.676 103.233 149.676 109.853L149.852 166.884C149.852 173.445 148.268 179.45 145.099 184.898C141.872 190.405 137.589 194.798 132.249 198.079C126.91 201.36 120.983 203 114.47 203ZM114.47 181.295C118.108 181.295 121.277 179.83 123.976 176.901C126.675 173.913 128.025 170.574 128.025 166.884L127.848 109.853C127.848 105.869 126.587 102.501 124.064 99.7473C121.541 96.9939 118.343 95.6172 114.47 95.6172C110.774 95.6172 107.605 96.9646 104.965 99.6594C102.324 102.354 101.004 105.752 101.004 109.853V166.884C101.004 170.809 102.324 174.206 104.965 177.077C107.605 179.889 110.774 181.295 114.47 181.295Z" fill="white" fill-opacity="0.9"/>
</svg>
