<svg width="824" height="824" viewBox="0 0 824 824" fill="none" xmlns="http://www.w3.org/2000/svg">
<rect width="824" height="824" fill="#007BFF" fill-opacity="0.3"/>
<path d="M0 0L824 0V824H0L0 0Z" fill="url(#paint0_linear_0_131)"/>
<path d="M436 220H508C520.73 220 532.939 225.057 541.941 234.059C550.943 243.061 556 255.27 556 268V604" stroke="#BED2FF" stroke-width="24" stroke-linecap="round" stroke-linejoin="round"/>
<path d="M172 604H244" stroke="#BED2FF" stroke-width="24" stroke-linecap="round" stroke-linejoin="round"/>
<path d="M436 604H652" stroke="#BED2FF" stroke-width="24" stroke-linecap="round" stroke-linejoin="round"/>
<path d="M364 412V412.24" stroke="white" stroke-width="24" stroke-linecap="round" stroke-linejoin="round"/>
<path d="M436 233.488V621.256C435.999 624.902 435.168 628.499 433.569 631.775C431.97 635.052 429.646 637.92 426.772 640.164C423.899 642.408 420.553 643.968 416.987 644.726C413.421 645.483 409.729 645.418 406.192 644.536L244 604V257.488C244.002 246.784 247.581 236.388 254.169 227.952C260.757 219.516 269.976 213.524 280.36 210.928L376.36 186.928C383.434 185.16 390.818 185.026 397.951 186.538C405.084 188.05 411.779 191.167 417.528 195.652C423.277 200.138 427.928 205.874 431.129 212.426C434.329 218.978 435.995 226.196 436 233.488Z" stroke="white" stroke-width="24" stroke-linecap="round" stroke-linejoin="round"/>
<defs>
<linearGradient id="paint0_linear_0_131" x1="353" y1="93.0001" x2="528" y2="747.5" gradientUnits="userSpaceOnUse">
<stop stop-color="#2563EB"/>
<stop offset="1" stop-color="#1D54CD"/>
</linearGradient>
</defs>
</svg>
