<svg width="1735" height="278" viewBox="0 0 1735 278" fill="none" xmlns="http://www.w3.org/2000/svg">
<g clip-path="url(#clip0_111_137)">
<rect width="1735" height="278" fill="white"/>
<path d="M398.453 245.367C387.856 245.367 378.085 242.644 369.141 237.2C360.294 231.756 353.149 224.513 347.704 215.471C342.357 206.333 339.684 196.319 339.684 185.43L339.975 90.7868C339.975 79.7037 342.649 69.7387 347.996 60.8917C353.246 51.9474 360.343 44.8018 369.287 39.4547C378.231 34.0103 387.953 31.2882 398.453 31.2882C409.342 31.2882 419.112 33.9617 427.765 39.3088C436.515 44.6559 443.515 51.8502 448.764 60.8917C454.111 69.8359 456.785 79.801 456.785 90.7868L457.077 185.43C457.077 196.319 454.452 206.284 449.202 215.326C443.855 224.464 436.758 231.756 427.911 237.2C419.064 242.644 409.244 245.367 398.453 245.367ZM398.453 209.347C404.481 209.347 409.731 206.916 414.203 202.055C418.675 197.097 420.911 191.555 420.911 185.43L420.619 90.7868C420.619 84.1758 418.529 78.5857 414.349 74.0164C410.168 69.447 404.87 67.1624 398.453 67.1624C392.328 67.1624 387.078 69.3984 382.703 73.8705C378.329 78.3427 376.141 83.9814 376.141 90.7868V185.43C376.141 191.944 378.329 197.583 382.703 202.347C387.078 207.013 392.328 209.347 398.453 209.347ZM541.559 242.45H508.018C507.046 242.45 506.56 241.964 506.56 240.992L507.143 35.8089C507.143 35.0312 507.532 34.6423 508.31 34.6423H565.767C584.044 34.6423 598.481 40.2324 609.078 51.4127C619.772 62.4958 625.119 77.6135 625.119 96.7658C625.119 110.766 622.349 122.967 616.807 133.369C611.168 143.674 603.877 151.647 594.933 157.285C585.988 162.924 576.266 165.743 565.767 165.743H543.017V240.992C543.017 241.964 542.531 242.45 541.559 242.45ZM565.767 70.079L543.017 70.3706V129.578H565.767C572.086 129.578 577.579 126.564 582.245 120.536C586.912 114.411 589.245 106.488 589.245 96.7658C589.245 88.9882 587.155 82.6203 582.975 77.6621C578.794 72.6067 573.058 70.079 565.767 70.079ZM769.975 242.45H673.436C672.658 242.45 672.269 241.964 672.269 240.992L672.561 35.8089C672.561 35.0312 672.95 34.6423 673.727 34.6423H769.684C770.461 34.6423 770.85 35.1284 770.85 36.1006V69.4956C770.85 70.2734 770.461 70.6623 769.684 70.6623H708.435V117.328H769.684C770.461 117.328 770.85 117.717 770.85 118.494L771.142 152.327C771.142 153.105 770.753 153.494 769.975 153.494H708.435V205.701H769.975C770.753 205.701 771.142 206.187 771.142 207.159V241.283C771.142 242.061 770.753 242.45 769.975 242.45ZM857.082 242.45H827.187C825.632 242.45 824.854 241.769 824.854 240.408L824.562 36.9756C824.562 35.42 825.34 34.6423 826.896 34.6423H853.874L904.331 152.327L902.873 36.9756C902.873 35.42 903.748 34.6423 905.498 34.6423H935.101C936.268 34.6423 936.851 35.42 936.851 36.9756L937.143 240.7C937.143 241.867 936.657 242.45 935.685 242.45H909.435L857.666 132.494L859.853 240.117C859.853 241.672 858.93 242.45 857.082 242.45ZM1024.98 242.45H991.438C990.466 242.45 989.98 241.964 989.98 240.992L990.563 35.8089C990.563 35.0312 990.952 34.6423 991.73 34.6423H1049.19C1067.46 34.6423 1081.9 40.2324 1092.5 51.4127C1103.19 62.4958 1108.54 77.6135 1108.54 96.7658C1108.54 110.766 1105.77 122.967 1100.23 133.369C1094.59 143.674 1087.3 151.647 1078.35 157.285C1069.41 162.924 1059.69 165.743 1049.19 165.743H1026.44V240.992C1026.44 241.964 1025.95 242.45 1024.98 242.45ZM1049.19 70.079L1026.44 70.3706V129.578H1049.19C1055.51 129.578 1061 126.564 1065.67 120.536C1070.33 114.411 1072.67 106.488 1072.67 96.7658C1072.67 88.9882 1070.58 82.6203 1066.4 77.6621C1062.21 72.6067 1056.48 70.079 1049.19 70.079ZM1145.63 240.992L1182.67 35.8089C1182.86 35.0312 1183.35 34.6423 1184.13 34.6423H1227.44C1228.22 34.6423 1228.7 35.0312 1228.9 35.8089L1264.48 240.992C1264.58 241.964 1264.19 242.45 1263.31 242.45H1230.21C1229.24 242.45 1228.7 241.964 1228.6 240.992L1225.4 219.117H1184.71L1181.5 240.992C1181.4 241.964 1180.92 242.45 1180.04 242.45H1146.79C1146.02 242.45 1145.63 241.964 1145.63 240.992ZM1204.11 103.328L1190.69 187.18H1219.42L1207.17 103.328L1205.42 92.2451L1204.11 103.328ZM1342.54 242.45H1312.65C1311.09 242.45 1310.32 241.769 1310.32 240.408L1310.02 36.9756C1310.02 35.42 1310.8 34.6423 1312.36 34.6423H1339.34L1389.79 152.327L1388.34 36.9756C1388.34 35.42 1389.21 34.6423 1390.96 34.6423H1420.56C1421.73 34.6423 1422.31 35.42 1422.31 36.9756L1422.61 240.7C1422.61 241.867 1422.12 242.45 1421.15 242.45H1394.9L1343.13 132.494L1345.32 240.117C1345.32 241.672 1344.39 242.45 1342.54 242.45ZM1573.15 242.45H1476.61C1475.83 242.45 1475.44 241.964 1475.44 240.992L1475.73 35.8089C1475.73 35.0312 1476.12 34.6423 1476.9 34.6423H1572.86C1573.63 34.6423 1574.02 35.1284 1574.02 36.1006V69.4956C1574.02 70.2734 1573.63 70.6623 1572.86 70.6623H1511.61V117.328H1572.86C1573.63 117.328 1574.02 117.717 1574.02 118.494L1574.31 152.327C1574.31 153.105 1573.93 153.494 1573.15 153.494H1511.61V205.701H1573.15C1573.93 205.701 1574.31 206.187 1574.31 207.159V241.283C1574.31 242.061 1573.93 242.45 1573.15 242.45ZM1725.44 242.45H1628.9C1628.12 242.45 1627.74 241.964 1627.74 240.992L1628.03 36.1006C1628.03 35.1284 1628.51 34.6423 1629.49 34.6423H1662.73C1663.71 34.6423 1664.19 35.1284 1664.19 36.1006L1663.9 205.701H1725.44C1726.41 205.701 1726.9 206.187 1726.9 207.159V240.992C1726.9 241.964 1726.41 242.45 1725.44 242.45Z" fill="#06122D"/>
<rect width="278" height="278" rx="20" fill="#2664EB"/>
<path d="M148.959 203H128.873C128.291 203 128 202.698 128 202.095L128.349 74.7242C128.349 74.2414 128.582 74 129.048 74H163.456C174.402 74 183.048 77.4702 189.394 84.4105C195.798 91.2905 199 100.675 199 112.564C199 121.255 197.341 128.829 194.022 135.286C190.645 141.684 186.279 146.632 180.923 150.133C175.566 153.633 169.744 155.383 163.456 155.383H149.833V202.095C149.833 202.698 149.542 203 148.959 203ZM163.456 95.9979L149.833 96.179V132.933H163.456C167.241 132.933 170.53 131.062 173.325 127.32C176.119 123.518 177.517 118.599 177.517 112.564C177.517 107.736 176.265 103.783 173.761 100.705C171.258 97.567 167.823 95.9979 163.456 95.9979Z" fill="white" fill-opacity="0.9"/>
<path d="M114.47 203C108.074 203 102.177 201.36 96.7791 198.079C91.4395 194.798 87.1267 190.434 83.8408 184.986C80.6136 179.479 79 173.445 79 166.884L79.176 109.853C79.176 103.174 80.7896 97.1696 84.0169 91.8386C87.1854 86.4489 91.4688 82.143 96.8671 78.921C102.265 75.6403 108.133 74 114.47 74C121.042 74 126.939 75.611 132.161 78.8331C137.442 82.0552 141.667 86.3903 144.835 91.8386C148.063 97.2282 149.676 103.233 149.676 109.853L149.852 166.884C149.852 173.445 148.268 179.45 145.099 184.898C141.872 190.405 137.589 194.798 132.249 198.079C126.91 201.36 120.983 203 114.47 203ZM114.47 181.295C118.108 181.295 121.277 179.83 123.976 176.901C126.675 173.913 128.025 170.574 128.025 166.884L127.848 109.853C127.848 105.869 126.587 102.501 124.064 99.7473C121.541 96.9939 118.343 95.6172 114.47 95.6172C110.774 95.6172 107.605 96.9646 104.965 99.6594C102.324 102.354 101.004 105.752 101.004 109.853V166.884C101.004 170.809 102.324 174.206 104.965 177.077C107.605 179.889 110.774 181.295 114.47 181.295Z" fill="white" fill-opacity="0.9"/>
</g>
<defs>
<clipPath id="clip0_111_137">
<rect width="1735" height="278" fill="white"/>
</clipPath>
</defs>
</svg>
