<svg width="251" height="66" viewBox="0 0 251 66" fill="none" xmlns="http://www.w3.org/2000/svg">
<path d="M0.635986 64V19.012H7.71999V24.624H9.00799C9.86665 23.0293 11.2773 21.5573 13.24 20.208C15.2027 18.8587 17.9627 18.184 21.52 18.184C25.016 18.184 27.8373 18.9507 29.984 20.484C32.192 22.0173 33.7867 23.888 34.768 26.096H36.056C37.0987 23.888 38.6627 22.0173 40.748 20.484C42.8947 18.9507 45.8693 18.184 49.672 18.184C52.6773 18.184 55.3147 18.7973 57.584 20.024C59.8533 21.2507 61.632 23.0293 62.92 25.36C64.2693 27.6293 64.944 30.3587 64.944 33.548V64H57.676V34.192C57.676 31.1867 56.7867 28.8253 55.008 27.108C53.2907 25.3293 50.868 24.44 47.74 24.44C44.428 24.44 41.6987 25.5133 39.552 27.66C37.4667 29.8067 36.424 32.904 36.424 36.952V64H29.156V34.192C29.156 31.1867 28.2667 28.8253 26.488 27.108C24.7707 25.3293 22.348 24.44 19.22 24.44C15.908 24.44 13.1787 25.5133 11.032 27.66C8.94665 29.8067 7.90399 32.904 7.90399 36.952V64H0.635986Z" fill="black"/>
<path d="M79.7883 64V19.012H87.0563V64H79.7883ZM83.4683 12.02C81.8737 12.02 80.5243 11.4987 79.4203 10.456C78.3777 9.41334 77.8563 8.09467 77.8563 6.5C77.8563 4.844 78.3777 3.49467 79.4203 2.452C80.5243 1.40933 81.8737 0.888 83.4683 0.888C85.063 0.888 86.3817 1.40933 87.4243 2.452C88.467 3.49467 88.9883 4.844 88.9883 6.5C88.9883 8.09467 88.467 9.41334 87.4243 10.456C86.3817 11.4987 85.063 12.02 83.4683 12.02Z" fill="black"/>
<path d="M98.6591 64L116.691 41.184L99.2111 19.012H107.951L121.383 36.4H122.671L136.011 19.012H144.843L127.271 41.184L145.303 64H136.471L122.671 46.06H121.383L107.583 64H98.6591Z" fill="black"/>
<path d="M169.596 65.288C166.468 65.288 163.616 64.736 161.04 63.632C158.464 62.528 156.44 60.9333 154.968 58.848C153.496 56.7627 152.76 54.2173 152.76 51.212C152.76 48.1453 153.496 45.6307 154.968 43.668C156.44 41.644 158.464 40.1413 161.04 39.16C163.616 38.1173 166.499 37.596 169.688 37.596H184.868V34.284C184.868 31.0947 183.917 28.58 182.016 26.74C180.176 24.9 177.416 23.98 173.736 23.98C170.117 23.98 167.296 24.8693 165.272 26.648C163.248 28.3653 161.868 30.696 161.132 33.64L154.324 31.432C155.06 28.9173 156.225 26.648 157.82 24.624C159.415 22.5387 161.531 20.8827 164.168 19.656C166.867 18.368 170.087 17.724 173.828 17.724C179.593 17.724 184.071 19.2267 187.26 22.232C190.449 25.176 192.044 29.3467 192.044 34.744V55.076C192.044 56.916 192.903 57.836 194.62 57.836H198.76V64H192.412C190.388 64 188.763 63.448 187.536 62.344C186.309 61.1787 185.696 59.6453 185.696 57.744V57.284H184.592C183.917 58.4493 182.997 59.676 181.832 60.964C180.728 62.1907 179.195 63.2027 177.232 64C175.269 64.8587 172.724 65.288 169.596 65.288ZM170.424 59.032C174.717 59.032 178.183 57.7747 180.82 55.26C183.519 52.684 184.868 49.096 184.868 44.496V43.484H169.964C167.081 43.484 164.689 44.128 162.788 45.416C160.948 46.6427 160.028 48.5133 160.028 51.028C160.028 53.5427 160.979 55.5053 162.88 56.916C164.843 58.3267 167.357 59.032 170.424 59.032Z" fill="black"/>
<path d="M208.714 64V19.012H215.798V26.648H217.086C218.067 24.5013 219.723 22.5693 222.054 20.852C224.446 19.0733 227.942 18.184 232.542 18.184C235.915 18.184 238.921 18.8893 241.558 20.3C244.257 21.7107 246.403 23.796 247.998 26.556C249.593 29.316 250.39 32.72 250.39 36.768V64H243.122V37.32C243.122 32.8427 241.987 29.592 239.718 27.568C237.51 25.544 234.505 24.532 230.702 24.532C226.347 24.532 222.79 25.9427 220.03 28.764C217.331 31.5853 215.982 35.7867 215.982 41.368V64H208.714Z" fill="black"/>
</svg>
