<svg width="1000" height="1000" viewBox="0 0 1000 1000" fill="none" xmlns="http://www.w3.org/2000/svg">
<rect width="1000" height="1000" rx="100" fill="#2564EB"/>
<rect x="548.075" y="287.946" width="129.343" height="427.822" rx="64.6715" fill="white"/>
<rect x="747.064" y="287.946" width="129.343" height="218.886" rx="64.6715" fill="white"/>
<path fill-rule="evenodd" clip-rule="evenodd" d="M300.392 283.344C202.279 283.344 122.742 362.881 122.742 460.994V533.594C122.742 631.708 202.279 711.244 300.392 711.244C398.506 711.244 478.042 631.708 478.042 533.594V460.994C478.042 362.881 398.506 283.344 300.392 283.344ZM300.714 387.844C264.997 387.844 236.042 416.799 236.042 452.516V542.058C236.042 577.775 264.997 606.73 300.714 606.73C336.431 606.73 365.385 577.776 365.385 542.058V452.516C365.385 416.799 336.431 387.844 300.714 387.844Z" fill="white"/>
</svg>
